<?xml version="1.0"?>
<svg width="450" height="72" xmlns="http://www.w3.org/2000/svg" xmlns:svg="http://www.w3.org/2000/svg" preserveAspectRatio="xMidYMid meet" version="1.0">
 <g class="layer">
  <title>Layer 1</title>
  <g fill="#056056" id="svg_12" transform="matrix(1, 0, 0, 1, 0, 0) matrix(0.0180216, 0, 0, -0.020524, -173.651, 156.199)">
   <path d="m12107.11,7587.71c-22,-8 -55,-21 -73,-31c-35,-18 -2298,-1897 -2344,-1947c-22,-23 -28,-39 -28,-74c0,-42 6,-52 107,-172c130,-157 137,-162 190,-163c36,0 51,7 100,47c32,26 527,438 1100,916c848,706 1047,868 1067,865c16,-2 419,-331 1062,-868c1284,-1070 1146,-960 1197,-960c53,1 61,7 191,162c95,115 106,132 106,167c0,22 -3,47 -6,55c-8,20 -510,439 -529,442c-18,3 -1038,852 -1090,908c-22,24 -192,170 -379,325c-387,324 -403,334 -541,338c-55,2 -105,-2 -130,-10z" id="svg_13"/>
   <path d="m13279.11,7579.71c-42,-24 -47,-57 -47,-286l1,-218l390,-325c214,-179 399,-331 409,-339c20,-13 20,-8 20,554l0,567l-29,29l-29,29l-349,0c-218,0 -355,-4 -366,-11z" id="svg_14"/>
   <path d="m11468.11,5768.71c-2,-13 -9,-66 -15,-120c-11,-102 -45,-224 -92,-325c-26,-60 -29,-63 -63,-63l-36,0l0,-185l0,-185l90,0l90,0l0,100l0,100l200,0l200,0l0,-100l0,-100l95,0l95,0l0,185l0,185l-55,0l-55,0l0,265l0,265l-225,0l-225,0l-4,-22zm244,-328l0,-180l-86,0c-65,0 -84,3 -80,13c25,61 70,215 79,274l12,73l37,0l38,0l0,-180z" id="svg_15"/>
   <path d="m12062.11,5615.71l0,-175l55,0l55,0l0,83l0,82l44,-80l43,-80l62,-3c33,-2 61,-1 61,2c0,3 -22,42 -50,88c-27,46 -50,86 -50,90c0,4 20,41 45,81c25,41 45,77 45,81c0,3 -26,6 -58,6l-58,0l-41,-82l-42,-83l0,83l-1,82l-55,0l-55,0l0,-175z" id="svg_16"/>
   <path d="m13532.11,5296.71l0,-466l-672,3c-370,2 -808,5 -973,6c-165,1 -394,2 -509,1l-209,0l-139,-137c-76,-75 -141,-145 -144,-156c-3,-10 -3,-29 0,-42c6,-25 308,-328 332,-333c8,-2 50,31 93,72c42,42 83,76 90,76c7,0 48,-34 91,-75c43,-41 84,-75 91,-75c6,0 46,34 88,75c43,41 83,75 89,75c7,0 45,-31 86,-70c40,-38 81,-70 90,-70c9,0 49,32 87,72c39,40 78,73 87,74c9,2 64,-44 127,-107l111,-109l842,0l842,0l0,628l0,629l-227,179c-125,98 -237,187 -250,197l-23,18l0,-465zm-940,-661l0,-55l-685,0l-685,0l0,55l0,55l685,0l685,0l0,-55z" id="svg_17"/>
   <path d="m12458.11,5634.71c-8,-70 -30,-124 -50,-124c-12,0 -16,-10 -16,-36l0,-37l42,6c56,7 81,38 98,116c10,48 17,61 31,61c17,0 19,-9 19,-90l0,-90l55,0l55,0l0,125l0,125l-114,0l-113,0l-7,-56z" id="svg_18"/>
   <path d="m12742.11,5565.71l0,-125l50,0l50,0l0,50c0,41 3,50 18,50c9,0 24,-13 34,-29c35,-63 116,-86 193,-56c54,20 75,54 75,118c0,33 -6,51 -24,70c-56,60 -176,61 -233,1c-44,-47 -63,-45 -63,6l0,40l-50,0l-50,0l0,-125zm310,31c28,-35 -11,-93 -47,-70c-36,22 -23,84 17,84c10,0 23,-7 30,-14z" id="svg_19"/>
   <path d="m13202.11,5626.71c0,-36 4,-76 10,-91c13,-35 54,-49 108,-37l42,9l0,-33l0,-34l50,0l50,0l0,125l0,125l-50,0l-49,0l-3,-57c-3,-54 -5,-58 -28,-58c-23,0 -25,4 -28,58l-3,57l-49,0l-50,0l0,-64z" id="svg_20"/>
   <path d="m12312.11,5410.71c-66,-14 -130,-59 -165,-114c-27,-45 -30,-57 -30,-135c0,-126 36,-186 140,-232c60,-27 183,-32 257,-10c104,30 170,122 170,239c1,114 -47,190 -144,232c-57,24 -162,34 -228,20zm130,-150c43,-23 46,-145 4,-191c-22,-24 -65,-24 -95,0c-19,15 -24,30 -27,82c-3,54 -1,68 18,92c23,29 65,36 100,17z" id="svg_21"/>
   <path d="m12762.11,5160.71l0,-250l80,0l80,0l1,178l1,177l46,-177l45,-178l88,0l88,0l15,53c9,28 31,111 50,182l35,130l0,-182l1,-183l95,0l95,0l0,250l0,250l-140,0c-77,0 -140,-1 -140,-3c0,-8 -79,-310 -82,-312c-2,-2 -21,69 -43,156l-40,159l-137,0l-138,0l0,-250z" id="svg_22"/>
  </g>
  <text  onclick="animateLetter(this)" class="clickable-letter" fill="#056056" font-family="Helvetica" font-size="48" font-weight="bold" id="svg_23" stroke="#000000" stroke-width="0" text-anchor="middle" transform="matrix(1, 0, 0, 1, 0, 0) matrix(1.58291, 0, 0, 1.65052, -687.952, -18.5703)" x="608.59" xml:space="preserve" y="46.61"><animate attributeName="dy" values="0;5;0" dur="0.1s" repeatCount="100" fill="freeze" />
  ДомКлюч
  </text>
  <text onclick="animateLetter(this)" class="clickable-letter" fill="#000000" font-family="Helvetica" font-size="20" id="svg_24" stroke="#000000" stroke-width="0" text-anchor="middle" transform="matrix(1.34472, 0, 0, 0.75352, -725.499, 0.757692)" x="763.77" xml:space="preserve" y="92.12"><animate attributeName="dy" values="0;5.8;0" dur="0.1s" repeatCount="100" fill="freeze" />
  агенство недвижимости
  </text>
 </g>

</svg>
