<?xml version="1.0" standalone="no"?>
<!DOCTYPE svg PUBLIC "-//W3C//DTD SVG 20010904//EN"
 "http://www.w3.org/TR/2001/REC-SVG-20010904/DTD/svg10.dtd">
<svg version="1.0" xmlns="http://www.w3.org/2000/svg"
 width="75.000000pt" height="75.000000pt" viewBox="0 0 512.000000 512.000000"
 preserveAspectRatio="xMidYMid meet">

<g transform="translate(0.000000,512.000000) scale(0.100000,-0.100000)" fill="#056056" stroke="none">
<path d="M2445 4617 c-22 -8 -55 -21 -73 -31 -35 -18 -2298 -1897 -2344 -1947
-22 -23 -28 -39 -28 -74 0 -42 6 -52 107 -172 130 -157 137 -162 190 -163 36
0 51 7 100 47 32 26 527 438 1100 916 848 706 1047 868 1067 865 16 -2 419
-331 1062 -868 1284 -1070 1146 -960 1197 -960 53 1 61 7 191 162 95 115 106
132 106 167 0 22 -3 47 -6 55 -8 20 -510 439 -529 442 -18 3 -1038 852 -1090
908 -22 24 -192 170 -379 325 -387 324 -403 334 -541 338 -55 2 -105 -2 -130
-10z"/>
<path d="M3617 4609 c-42 -24 -47 -57 -47 -286 l1 -218 390 -325 c214 -179
399 -331 409 -339 20 -13 20 -8 20 554 l0 567 -29 29 -29 29 -349 0 c-218 0
-355 -4 -366 -11z"/>
<path d="M1806 2798 c-2 -13 -9 -66 -15 -120 -11 -102 -45 -224 -92 -325 -26
-60 -29 -63 -63 -63 l-36 0 0 -185 0 -185 90 0 90 0 0 100 0 100 200 0 200 0
0 -100 0 -100 95 0 95 0 0 185 0 185 -55 0 -55 0 0 265 0 265 -225 0 -225 0
-4 -22z m244 -328 l0 -180 -86 0 c-65 0 -84 3 -80 13 25 61 70 215 79 274 l12
73 37 0 38 0 0 -180z"/>
<path d="M2400 2645 l0 -175 55 0 55 0 0 83 0 82 44 -80 43 -80 62 -3 c33 -2
61 -1 61 2 0 3 -22 42 -50 88 -27 46 -50 86 -50 90 0 4 20 41 45 81 25 41 45
77 45 81 0 3 -26 6 -58 6 l-58 0 -41 -82 -42 -83 0 83 -1 82 -55 0 -55 0 0
-175z"/>
<path d="M3870 2326 l0 -466 -672 3 c-370 2 -808 5 -973 6 -165 1 -394 2 -509
1 l-209 0 -139 -137 c-76 -75 -141 -145 -144 -156 -3 -10 -3 -29 0 -42 6 -25
308 -328 332 -333 8 -2 50 31 93 72 42 42 83 76 90 76 7 0 48 -34 91 -75 43
-41 84 -75 91 -75 6 0 46 34 88 75 43 41 83 75 89 75 7 0 45 -31 86 -70 40
-38 81 -70 90 -70 9 0 49 32 87 72 39 40 78 73 87 74 9 2 64 -44 127 -107
l111 -109 842 0 842 0 0 628 0 629 -227 179 c-125 98 -237 187 -250 197 l-23
18 0 -465z m-940 -661 l0 -55 -685 0 -685 0 0 55 0 55 685 0 685 0 0 -55z"/>
<path d="M2796 2664 c-8 -70 -30 -124 -50 -124 -12 0 -16 -10 -16 -36 l0 -37
42 6 c56 7 81 38 98 116 10 48 17 61 31 61 17 0 19 -9 19 -90 l0 -90 55 0 55
0 0 125 0 125 -114 0 -113 0 -7 -56z"/>
<path d="M3080 2595 l0 -125 50 0 50 0 0 50 c0 41 3 50 18 50 9 0 24 -13 34
-29 35 -63 116 -86 193 -56 54 20 75 54 75 118 0 33 -6 51 -24 70 -56 60 -176
61 -233 1 -44 -47 -63 -45 -63 6 l0 40 -50 0 -50 0 0 -125z m310 31 c28 -35
-11 -93 -47 -70 -36 22 -23 84 17 84 10 0 23 -7 30 -14z"/>
<path d="M3540 2656 c0 -36 4 -76 10 -91 13 -35 54 -49 108 -37 l42 9 0 -33 0
-34 50 0 50 0 0 125 0 125 -50 0 -49 0 -3 -57 c-3 -54 -5 -58 -28 -58 -23 0
-25 4 -28 58 l-3 57 -49 0 -50 0 0 -64z"/>
<path d="M2650 2440 c-66 -14 -130 -59 -165 -114 -27 -45 -30 -57 -30 -135 0
-126 36 -186 140 -232 60 -27 183 -32 257 -10 104 30 170 122 170 239 1 114
-47 190 -144 232 -57 24 -162 34 -228 20z m130 -150 c43 -23 46 -145 4 -191
-22 -24 -65 -24 -95 0 -19 15 -24 30 -27 82 -3 54 -1 68 18 92 23 29 65 36
100 17z"/>
<path d="M3100 2190 l0 -250 80 0 80 0 1 178 1 177 46 -177 45 -178 88 0 88 0
15 53 c9 28 31 111 50 182 l35 130 0 -182 1 -183 95 0 95 0 0 250 0 250 -140
0 c-77 0 -140 -1 -140 -3 0 -8 -79 -310 -82 -312 -2 -2 -21 69 -43 156 l-40
159 -137 0 -138 0 0 -250z"/>
</g>
</svg>
